<svg xmlns="http://www.w3.org/2000/svg" viewBox="0 0 72.11 63.85"><defs><style>.cls-1{fill:#fff;}</style></defs><g id="Laag_2" data-name="Laag 2"><g id="Laag_1-2" data-name="Laag 1"><path class="cls-1" d="M34.52,29a2.2,2.2,0,0,0,3.12,0L61.49,5c1.06-1.06,1.95-2.61,3.23-3.05a13.6,13.6,0,0,1,3.81-.57,2.19,2.19,0,0,1,2.29,2.11c.06,1.48.09,2.94-.62,3.78-3.75,4.43-8.09,8.38-12.22,12.5-5.89,5.9-11.86,11.71-17.64,17.71-2.91,3-5.34,3.28-8.41.15C22.25,27.75,12.42,18,2.63,8.25c-2-2-4-4.13-1.42-6.81C4-1.48,6.26.61,8.37,2.73,16.92,11.34,25.48,19.93,34.52,29Z"/><path class="cls-1" d="M34.38,52.94a2.21,2.21,0,0,0,3.12,0L60.73,29.75c1.06-1.06,2.13-2.11,3.18-3.19,2-2,4.14-3.88,6.81-1.33s1,4.79-1,6.83q-4.61,4.57-9.19,9.18C53.79,48,47,54.61,40.38,61.42c-2.87,3-5.3,3.41-8.4.25-9.81-10-19.76-19.84-29.66-29.73C.4,30-1.12,27.93,1.16,25.48,3.64,22.8,5.9,24.24,8,26.33,16.63,35.07,25.3,43.79,34.38,52.94Z"/></g></g></svg>