<svg xmlns="http://www.w3.org/2000/svg" viewBox="0 0 173.86 173.86"><defs><style>.cls-1{fill:#fff;}.cls-2{fill:#6fcdd1;}</style></defs><g id="Laag_2" data-name="Laag 2"><g id="Laag_1-2" data-name="Laag 1"><path class="cls-1" d="M173.86,173.86H0V82.79A82.89,82.89,0,0,1,82.8,0h91.06ZM8,165.85H165.85V8h-83A74.87,74.87,0,0,0,8,82.79Z"/><path class="cls-1" d="M42.76,82.53V55.22a9.85,9.85,0,0,1,9.86-9.86h0V82.53Z"/><path class="cls-1" d="M75,83.58a19.41,19.41,0,0,1-7.15-1.26,15.25,15.25,0,0,1-5.42-3.59,12.51,12.51,0,0,1-3.06-5.5L62,72.66a11.07,11.07,0,0,1,8.68,2.1l0,0a7.48,7.48,0,0,0,4.37,1.27A6.81,6.81,0,0,0,79.05,75a3.31,3.31,0,0,0,1.55-2.88,3.1,3.1,0,0,0-1.37-2.57A11.24,11.24,0,0,0,74.69,68l-2-.35q-6.06-1-9.19-3.94a9.5,9.5,0,0,1-3.13-7.32,10.87,10.87,0,0,1,1.83-6.23,12.38,12.38,0,0,1,5.07-4.26,17.09,17.09,0,0,1,7.46-1.55,18.08,18.08,0,0,1,6.79,1.23A13.76,13.76,0,0,1,86.65,49a12.21,12.21,0,0,1,2.82,5.42l-2.42.5A12.14,12.14,0,0,1,78.42,53l0,0a5.92,5.92,0,0,0-3.69-1.2,5.84,5.84,0,0,0-3.59,1.06,3.22,3.22,0,0,0-1.41,2.68,2.8,2.8,0,0,0,1.37,2.35,12.31,12.31,0,0,0,4.68,1.52l2,.35q6,1.05,9.16,4A9.64,9.64,0,0,1,90,71.12a11.28,11.28,0,0,1-1.09,5,11.7,11.7,0,0,1-3.13,3.94A14.67,14.67,0,0,1,81,82.67,19.06,19.06,0,0,1,75,83.58Z"/><path class="cls-1" d="M108.85,83.58a15.81,15.81,0,0,1-5.28-.84,12.81,12.81,0,0,1-4.19-2.43,11.24,11.24,0,0,1-2.78-3.7,10.75,10.75,0,0,1-1-4.64,10.49,10.49,0,0,1,1.9-6.2,12.62,12.62,0,0,1,5.35-4.19,20,20,0,0,1,8-1.51,22.2,22.2,0,0,1,4.4.42,25.08,25.08,0,0,1,4,1.2V59.51a7.32,7.32,0,0,0-1.8-5.14,6.27,6.27,0,0,0-4.89-2,7.86,7.86,0,0,0-4.22,1.16l0,0a12.48,12.48,0,0,1-9,2L97,55.07A12.36,12.36,0,0,1,100,49.41a15.6,15.6,0,0,1,5.6-3.77,19,19,0,0,1,7.18-1.34,18.3,18.3,0,0,1,6.55,1.13,14.52,14.52,0,0,1,8.41,8.2A16.81,16.81,0,0,1,128.91,60V82.53h-8.8l-.28-4.37a11.1,11.1,0,0,1-4.29,3.91A13.94,13.94,0,0,1,108.85,83.58Zm-3.52-12.11A3.93,3.93,0,0,0,107,74.71,6.74,6.74,0,0,0,111.24,76a8.57,8.57,0,0,0,4.15-1,7.4,7.4,0,0,0,2.89-2.71,7.21,7.21,0,0,0,1.06-3.83v-.36a19.94,19.94,0,0,0-3.31-1,16.23,16.23,0,0,0-3.52-.39,9.27,9.27,0,0,0-5.25,1.3A4,4,0,0,0,105.33,71.47Z"/><path class="cls-2" d="M142.35,82.81a5.81,5.81,0,0,1-3.13-.85A6.64,6.64,0,0,1,137,79.71a6.12,6.12,0,0,1,0-6.19,6.76,6.76,0,0,1,2.22-2.26,6.27,6.27,0,0,1,6.27,0,6.76,6.76,0,0,1,2.22,2.26,6.12,6.12,0,0,1,0,6.19A6.64,6.64,0,0,1,145.49,82,5.82,5.82,0,0,1,142.35,82.81Z"/><path class="cls-1" d="M56.68,140.69a17.8,17.8,0,0,1-7-1.37A16.54,16.54,0,0,1,44,135.48a17.86,17.86,0,0,1-3.71-5.85A19.72,19.72,0,0,1,39,122.31a20,20,0,0,1,1.37-7.45,18.93,18.93,0,0,1,3.81-6,17.56,17.56,0,0,1,5.72-4,17.37,17.37,0,0,1,7.08-1.44,16.89,16.89,0,0,1,7,1.44,15.44,15.44,0,0,1,5.45,4A14.59,14.59,0,0,1,72.52,115l-2.63.51a11.59,11.59,0,0,1-9-2.32l0,0a6.77,6.77,0,0,0-4.08-1.3,7,7,0,0,0-4.24,1.33,9.09,9.09,0,0,0-2.91,3.71,12.9,12.9,0,0,0-1.07,5.32,12.42,12.42,0,0,0,1,5.21A8.55,8.55,0,0,0,52.47,131a7.26,7.26,0,0,0,4.27,1.3A7.73,7.73,0,0,0,61.09,131l0,0a13.13,13.13,0,0,1,9.75-2.24l2,.39a13.94,13.94,0,0,1-3.24,6.15,15.85,15.85,0,0,1-5.71,4A18.4,18.4,0,0,1,56.68,140.69Z"/><path class="cls-1" d="M93.55,140.69a14.5,14.5,0,0,1-6.35-1.4,15.9,15.9,0,0,1-5.15-3.91,18.34,18.34,0,0,1-3.44-5.85,20.74,20.74,0,0,1-1.24-7.29,21.06,21.06,0,0,1,1.27-7.42,19,19,0,0,1,3.55-6,16.36,16.36,0,0,1,5.31-4,15.18,15.18,0,0,1,6.58-1.44,13.63,13.63,0,0,1,6,1.31,12.51,12.51,0,0,1,4.51,3.64V99.18a9.36,9.36,0,0,1,9.36-9.36h0v49.87h-8.63l-.26-5.15a13.36,13.36,0,0,1-11.5,6.15Zm2.27-8.42a8,8,0,0,0,4.55-1.34,9.38,9.38,0,0,0,3.17-3.64,12.34,12.34,0,0,0,0-10.49,9.48,9.48,0,0,0-3.17-3.65,8.43,8.43,0,0,0-9.09,0,9.43,9.43,0,0,0-3.18,3.65,12.34,12.34,0,0,0,0,10.49,9.32,9.32,0,0,0,3.18,3.64A7.92,7.92,0,0,0,95.82,132.27Z"/><path class="cls-1" d="M123.47,139.69V104.4h8.62l.34,5.34a10.41,10.41,0,0,1,3.6-4.31,9.5,9.5,0,0,1,5.35-1.5,10.66,10.66,0,0,1,1.87.17,9.65,9.65,0,0,1,1.67.43l-1,9.23a6.58,6.58,0,0,0-1.5-.37,11.72,11.72,0,0,0-1.57-.1,7.47,7.47,0,0,0-5.95,2.37,9.9,9.9,0,0,0-2.07,6.72v10.07a7.25,7.25,0,0,1-7.25,7.24Z"/></g></g></svg>